<?xml version="1.0" encoding="UTF-8" standalone="no"?>
<!-- Generator: Adobe Illustrator 19.1.1, SVG Export Plug-In . SVG Version: 6.00 Build 0)  -->

<svg
   xmlns:dc="http://purl.org/dc/elements/1.1/"
   xmlns:cc="http://creativecommons.org/ns#"
   xmlns:rdf="http://www.w3.org/1999/02/22-rdf-syntax-ns#"
   xmlns:svg="http://www.w3.org/2000/svg"
   xmlns="http://www.w3.org/2000/svg"
   xmlns:sodipodi="http://sodipodi.sourceforge.net/DTD/sodipodi-0.dtd"
   xmlns:inkscape="http://www.inkscape.org/namespaces/inkscape"
   version="1.1"
   id="Layer_1"
   x="0px"
   y="0px"
   viewBox="0 0 131.3 113.6"
   xml:space="preserve"
   sodipodi:docname="BEST_LOGO.svg"
   width="131.3"
   height="113.6"
   inkscape:version="0.92.5 (2060ec1f9f, 2020-04-08)"><metadata
   id="metadata17"><rdf:RDF><cc:Work
       rdf:about=""><dc:format>image/svg+xml</dc:format><dc:type
         rdf:resource="http://purl.org/dc/dcmitype/StillImage" /><dc:title></dc:title></cc:Work></rdf:RDF></metadata><defs
   id="defs15" /><sodipodi:namedview
   pagecolor="#ffffff"
   bordercolor="#666666"
   borderopacity="1"
   objecttolerance="10"
   gridtolerance="10"
   guidetolerance="10"
   inkscape:pageopacity="0"
   inkscape:pageshadow="2"
   inkscape:window-width="1920"
   inkscape:window-height="1048"
   id="namedview13"
   showgrid="false"
   inkscape:zoom="5.12"
   inkscape:cx="42.861061"
   inkscape:cy="48.800001"
   inkscape:window-x="0"
   inkscape:window-y="0"
   inkscape:window-maximized="1"
   inkscape:current-layer="Layer_1" />
<style
   type="text/css"
   id="style2">
	.st0{fill:#1C75BC;}
	.st1{fill:#F8B323;}
	.st2{fill:#72BF44;}
</style>
<path
   class="st0"
   d="m 85.4,73.9 -8.6,-5 H 54.4 l -8.6,5 C 54,88.2 78.6,111.6 105.3,113.6 96,108.4 81.2,89.7 85.4,73.9 Z"
   id="path4"
   inkscape:connector-curvature="0"
   style="fill:#1c75bc" />
<path
   class="st1"
   d="M 91.5,0 C 91.6,10.7 82.8,32.8 67,37.1 V 47 l -0.2,-0.3 11.4,19.8 8.6,5 C 95.1,57.1 103.1,24.1 91.5,0 Z"
   id="path6"
   inkscape:connector-curvature="0"
   style="fill:#f8b323" />
<path
   class="st2"
   d="m 0,68.7 c 9.2,-5.4 32.7,-8.9 44.3,2.7 l 8.6,-5 -0.2,0.3 L 64.2,47 V 37.1 C 47.7,37 15.1,46.6 0,68.7 Z"
   id="path8"
   inkscape:connector-curvature="0"
   style="fill:#72bf44" />
<path
   class="st0"
   d="m 60.3,60.8 c 0,-2.9 2.4,-5.3 5.3,-5.3 2.9,0 5.3,2.4 5.3,5.3 0,2.9 -2.4,5.3 -5.3,5.3 -2.9,-0.1 -5.3,-2.4 -5.3,-5.3 z"
   id="path10"
   inkscape:connector-curvature="0"
   style="fill:#1c75bc" />
</svg>