<?xml version="1.0" encoding="utf-8"?>
<!-- Generator: Adobe Illustrator 19.1.1, SVG Export Plug-In . SVG Version: 6.00 Build 0)  -->
<svg version="1.1" id="Layer_1" xmlns="http://www.w3.org/2000/svg" xmlns:xlink="http://www.w3.org/1999/xlink" x="0px" y="0px"
	 viewBox="0 0 105.3 113.6" style="enable-background:new 0 0 105.3 113.6;" xml:space="preserve">
<style type="text/css">
	.st0{fill:#1C75BC;}
	.st1{fill:#F8B323;}
	.st2{fill:#72BF44;}
</style>
<path class="st0" d="M85.4,73.9l-8.6-5H54.4l-8.6,5c8.2,14.3,32.8,37.7,59.5,39.7C96,108.4,81.2,89.7,85.4,73.9z"/>
<path class="st1" d="M91.5,0c0.1,10.7-8.7,32.8-24.5,37.1l0,9.9l-0.2-0.3l11.4,19.8l8.6,5C95.1,57.1,103.1,24.1,91.5,0z"/>
<path class="st2" d="M0,68.7c9.2-5.4,32.7-8.9,44.3,2.7l8.6-5l-0.2,0.3L64.2,47l0-9.9C47.7,37,15.1,46.6,0,68.7z"/>
<path class="st0" d="M60.3,60.8c0-2.9,2.4-5.3,5.3-5.3c2.9,0,5.3,2.4,5.3,5.3c0,2.9-2.4,5.3-5.3,5.3C62.7,66,60.3,63.7,60.3,60.8z"
	/>
</svg>
